<?xml version="1.0" encoding="utf-8"?>
<!-- Generator: Adobe Illustrator 15.0.0, SVG Export Plug-In . SVG Version: 6.00 Build 0)  -->
<!DOCTYPE svg PUBLIC "-//W3C//DTD SVG 1.1//EN" "http://www.w3.org/Graphics/SVG/1.1/DTD/svg11.dtd">
<svg version="1.1" id="Layer_1" xmlns="http://www.w3.org/2000/svg" xmlns:xlink="http://www.w3.org/1999/xlink" x="0px" y="0px"
	 width="185.001px" height="63px" viewBox="27 23 185.001 63" enable-background="new 27 23 185.001 63" xml:space="preserve">
<path fill="#4C67B4" d="M212,78.262c0,4.273-2.331,7.738-5.206,7.738H32.206C29.331,86,27,82.536,27,78.262V30.738
	C27,26.464,29.331,23,32.206,23h174.589c2.875,0,5.206,3.464,5.206,7.738L212,78.262L212,78.262z"/>
<g>
	<path fill="#FFFFFF" d="M122.637,55.362c-0.516-0.535-1.124-0.998-1.808-1.376c-0.672-0.37-1.397-0.691-2.158-0.954
		c-0.752-0.259-1.535-0.481-2.33-0.659c-0.786-0.176-1.549-0.339-2.29-0.49c-1.075-0.222-1.981-0.45-2.692-0.678
		c-0.698-0.222-1.263-0.47-1.683-0.735c-0.391-0.248-0.668-0.532-0.821-0.845c-0.159-0.323-0.239-0.726-0.239-1.199
		c0-1.061,0.442-1.879,1.352-2.502c0.936-0.642,2.306-0.967,4.073-0.967c3.611,0,5.521,1.375,5.84,4.202l0.033,0.292h3.811
		l-0.011-0.339c-0.039-1.208-0.308-2.309-0.797-3.27c-0.49-0.96-1.18-1.789-2.048-2.46c-0.861-0.668-1.897-1.184-3.079-1.532
		c-1.172-0.346-2.485-0.521-3.9-0.521c-1.345,0-2.59,0.18-3.701,0.533c-1.117,0.354-2.091,0.854-2.895,1.483
		c-0.813,0.635-1.45,1.406-1.896,2.292c-0.448,0.888-0.674,1.865-0.674,2.904c0,0.969,0.167,1.837,0.499,2.578
		c0.332,0.745,0.845,1.414,1.526,1.988c0.669,0.566,1.535,1.065,2.571,1.482c1.017,0.412,2.246,0.78,3.658,1.099
		c1.43,0.298,2.646,0.591,3.615,0.869c0.954,0.273,1.732,0.582,2.314,0.918c0.554,0.32,0.956,0.696,1.194,1.118
		c0.24,0.424,0.362,0.952,0.362,1.567c0,0.591-0.135,1.129-0.399,1.597c-0.268,0.474-0.655,0.886-1.15,1.226
		c-0.504,0.346-1.124,0.615-1.841,0.799c-1.476,0.378-3.461,0.377-5.056-0.029c-0.797-0.201-1.51-0.52-2.12-0.947
		c-0.605-0.423-1.108-0.965-1.496-1.61c-0.386-0.645-0.625-1.421-0.707-2.306l-0.028-0.299h-3.798l0.01,0.339
		c0.039,1.279,0.295,2.465,0.762,3.525c0.469,1.069,1.166,2.004,2.071,2.779c0.901,0.771,2.04,1.378,3.386,1.803
		c1.337,0.422,2.917,0.636,4.696,0.636c1.358,0,2.632-0.192,3.788-0.572c1.16-0.379,2.179-0.917,3.027-1.598
		c0.854-0.685,1.529-1.515,2.007-2.469c0.478-0.957,0.721-2.019,0.721-3.156c0-0.978-0.154-1.848-0.458-2.588
		C123.577,56.551,123.158,55.903,122.637,55.362z"/>
	<path fill="#FFFFFF" d="M136.7,48.173c-1.025,0-2.023,0.24-2.967,0.712c-0.72,0.359-1.411,0.865-2.063,1.509v-8.633h-3.835v25.478
		h3.835V54.153c1.542-1.76,3.083-2.652,4.579-2.652c0.548,0,1.02,0.07,1.403,0.207c0.365,0.131,0.656,0.334,0.89,0.622
		c0.237,0.292,0.415,0.681,0.528,1.157c0.119,0.5,0.179,1.113,0.179,1.823v11.93h3.874V55.158
		C143.122,50.523,140.961,48.173,136.7,48.173z"/>
	<path fill="#FFFFFF" d="M160.269,49.609c-0.669-0.538-1.49-0.917-2.438-1.127c-0.922-0.205-1.971-0.309-3.118-0.309
		c-5.159,0-7.895,1.983-8.132,5.894l-0.021,0.349h3.878l0.015-0.313c0.091-1.852,1.423-2.753,4.072-2.753
		c1.021,0,1.818,0.101,2.37,0.3c0.518,0.187,0.896,0.458,1.125,0.803c0.237,0.358,0.38,0.815,0.426,1.359
		c0.042,0.506,0.065,1.082,0.072,1.712h-1.249c-7.418,0-11.179,2.23-11.179,6.628c0,0.823,0.17,1.587,0.504,2.27
		c0.333,0.679,0.798,1.266,1.384,1.745c0.579,0.474,1.265,0.847,2.04,1.11c0.771,0.262,1.616,0.394,2.512,0.394
		c2.337,0,4.348-0.634,5.989-1.887v1.454h3.836v-11.93c0-1.388-0.178-2.557-0.529-3.474C161.47,50.899,160.944,50.15,160.269,49.609
		z M156.631,58.533h1.889v3.552c-0.258,0.354-0.564,0.677-0.913,0.959c-0.379,0.309-0.797,0.574-1.241,0.787
		c-0.449,0.215-0.926,0.381-1.417,0.493c-0.491,0.113-0.994,0.171-1.496,0.171c-1.066,0-1.925-0.227-2.555-0.673
		c-0.603-0.427-0.895-1.028-0.895-1.838C150.003,59.662,152.171,58.533,156.631,58.533z"/>
	<path fill="#FFFFFF" d="M174.625,48.173c-1.625,0-3.093,0.769-4.372,2.288v-1.837h-3.836v18.615h3.836V54.304
		c0.558-0.771,1.156-1.357,1.781-1.743c0.634-0.392,1.341-0.59,2.102-0.59c0.802,0,1.419,0.07,1.833,0.208l0.434,0.145v-3.945
		l-0.269-0.05C175.579,48.225,175.071,48.173,174.625,48.173z"/>
	<path fill="#FFFFFF" d="M194.341,57.922c0-1.508-0.205-2.878-0.61-4.073c-0.407-1.203-0.999-2.238-1.76-3.077
		c-0.764-0.841-1.699-1.493-2.78-1.935c-1.076-0.44-2.294-0.664-3.622-0.664c-1.279,0-2.474,0.227-3.549,0.674
		c-1.08,0.449-2.018,1.106-2.787,1.953c-0.766,0.845-1.37,1.878-1.796,3.073c-0.425,1.189-0.64,2.552-0.64,4.05
		c0,1.524,0.222,2.903,0.659,4.099c0.44,1.202,1.068,2.237,1.867,3.075c0.801,0.841,1.774,1.488,2.892,1.923
		c1.111,0.433,2.354,0.652,3.692,0.652c1.042,0,2.034-0.134,2.95-0.399c0.922-0.266,1.75-0.659,2.459-1.167
		c0.716-0.513,1.315-1.155,1.78-1.909c0.467-0.755,0.776-1.629,0.92-2.597l0.056-0.378h-4.049l-0.008,0.321
		c-0.011,0.47-0.129,0.873-0.361,1.23c-0.238,0.368-0.55,0.681-0.929,0.928c-0.391,0.257-0.838,0.455-1.326,0.588
		c-1.192,0.327-2.421,0.251-3.42-0.148c-0.58-0.231-1.1-0.588-1.548-1.059c-0.45-0.474-0.819-1.079-1.097-1.8
		c-0.248-0.643-0.417-1.403-0.503-2.261h13.509V57.922z M185.569,51.35c1.227,0,2.238,0.395,3.092,1.207
		c0.783,0.745,1.313,1.85,1.579,3.288h-9.341c0.124-0.675,0.308-1.278,0.55-1.798c0.283-0.607,0.633-1.115,1.041-1.51
		c0.406-0.394,0.874-0.692,1.391-0.887C184.406,51.451,184.974,51.35,185.569,51.35z"/>
</g>
<path fill="#FFFFFF" d="M84.589,32.438H47.795c-1.674,0-4.92,1.072-4.92,2.745v36.795c0,1.673,3.246,4.585,4.92,4.585h16.576V61.854
	h-6.788v-6.789h6.788v-5.853c0-6.245,4.033-8.855,9.605-8.855c2.668,0,3.972,0,5.104,0v7.92h-2.072
	c-3.028,0-5.848-0.581-5.848,2.452v4.336l7.354-0.141l0.01,6.93H71.16v14.708h13.429c1.673,0,2.411-2.913,2.411-4.585V35.182
	C87,33.509,86.263,32.438,84.589,32.438z"/>
</svg>
