<?xml version="1.0" encoding="utf-8"?>
<!-- Generator: Adobe Illustrator 16.0.0, SVG Export Plug-In . SVG Version: 6.00 Build 0)  -->
<!DOCTYPE svg PUBLIC "-//W3C//DTD SVG 1.0//EN" "http://www.w3.org/TR/2001/REC-SVG-20010904/DTD/svg10.dtd">
<svg version="1.0" id="Layer_1" xmlns="http://www.w3.org/2000/svg" xmlns:xlink="http://www.w3.org/1999/xlink" x="0px" y="0px"
	 width="354.313px" height="93.157px" viewBox="0 0 354.313 93.157" enable-background="new 0 0 354.313 93.157"
	 xml:space="preserve">
<g>
	<polygon fill="#FFFFFF" points="77,3.213 74.394,3.213 73.935,5.819 62.75,69.252 55.838,69.252 67.022,5.819 67.482,3.213 
		64.875,3.213 48.495,3.213 45.889,3.213 45.429,5.819 34.245,69.252 27.075,69.252 38.26,5.819 38.719,3.213 36.113,3.213 
		19.862,3.213 17.255,3.213 16.795,5.819 2.399,87.466 1.939,90.072 4.546,90.072 33.18,90.072 34.259,90.072 35.157,89.309 
		42.564,83.012 47.864,89.323 48.493,90.072 49.56,90.072 78.065,90.072 80.672,90.072 81.132,87.466 95.528,5.819 95.988,3.213 
		93.381,3.213 	"/>
	<path fill="#FFFFFF" d="M169.218,3.085h-2.606l-0.46,2.606l-14.419,81.774l-0.459,2.606h2.606h49.787h2.606l0.459-2.606
		l5.832-33.071l0.188-1.065l-0.613-0.761l-4.772-5.926l6.862-5.924l0.881-0.76l0.188-1.066l5.854-33.201l0.459-2.606h-2.606H169.218
		z M182.36,36.232l2.173-12.327h11.941l-2.173,12.327H182.36z M176.538,69.252l2.151-12.199h11.941l-2.151,12.199H176.538z"/>
	<path fill="#EE3C96" d="M349.767,3.085h-49.786h-2.606l-0.46,2.606l-8.597,48.755l-0.46,2.606h2.607h30.928l-2.151,12.199h-12.07
		l-21.455-0.049l-3.221,18.263l-0.459,2.606h2.606h49.787h2.606l0.459-2.606l14.419-81.774l0.459-2.606H349.767z M312.994,36.232
		l2.174-12.327h12.07l-2.174,12.327H312.994z"/>
	<g>
		<polygon fill="#FFFFFF" points="94.556,69.252 90.885,90.072 138.671,90.072 141.277,90.072 141.737,87.466 144.489,71.858 
			144.949,69.252 142.342,69.252 		"/>
		<polygon fill="#FFFFFF" points="100.378,36.232 96.707,57.053 144.493,57.053 147.1,57.053 147.559,54.446 150.311,38.839 
			150.771,36.232 148.164,36.232 		"/>
		<polygon fill="#FFFFFF" points="154.009,3.085 106.223,3.085 102.552,23.905 150.338,23.905 152.944,23.905 153.404,21.299 
			156.156,5.691 156.616,3.085 		"/>
	</g>
	<polygon fill="#EE3C96" points="284.254,3.085 231.825,3.085 228.153,23.905 261.595,23.905 253.599,69.252 220.158,69.252 
		216.487,90.072 268.917,90.072 271.523,90.072 271.982,87.466 286.402,5.691 286.861,3.085 	"/>
</g>
</svg>
